<?xml version="1.0" encoding="utf-8"?>
<!-- Generator: Adobe Illustrator 22.0.1, SVG Export Plug-In . SVG Version: 6.00 Build 0)  -->
<svg version="1.1" id="Layer_1" xmlns="http://www.w3.org/2000/svg" xmlns:xlink="http://www.w3.org/1999/xlink" x="0px" y="0px"
	 width="25px" height="25px" viewBox="0 0 25 25" style="enable-background:new 0 0 25 25;" xml:space="preserve">
<style type="text/css">
	.st0{fill:#444444;}
</style>
<path class="st0" d="M23.2,21.8l-5.7-5.7c1.2-1.5,2-3.5,2-5.6c0-5-4-9-9-9s-9,4-9,9s4,9,9,9c2.1,0,4.1-0.7,5.6-2l5.7,5.7
	c0.2,0.2,0.5,0.3,0.7,0.3s0.5-0.1,0.7-0.3C23.6,22.8,23.6,22.2,23.2,21.8z M10.5,17.5c-3.9,0-7-3.1-7-7s3.1-7,7-7s7,3.1,7,7
	S14.4,17.5,10.5,17.5z"/>
</svg>
