<?xml version="1.0" encoding="utf-8"?>
<!-- Generator: Adobe Illustrator 22.0.1, SVG Export Plug-In . SVG Version: 6.00 Build 0)  -->
<svg version="1.1" id="Layer_1" xmlns="http://www.w3.org/2000/svg" xmlns:xlink="http://www.w3.org/1999/xlink" x="0px" y="0px"
	 width="30px" height="30px" viewBox="0 0 30 30" style="enable-background:new 0 0 30 30;" xml:space="preserve">
<style type="text/css">
	.st0{fill:#F06422;}
</style>
<g>
	<path class="st0" d="M5.6,6.8C5.4,6.8,5.2,6.9,5.1,7C5,7.2,5,7.5,5.1,7.7l2.6,4.6l0,0l-4.1,7.3c-0.1,0.2-0.1,0.4,0,0.6
		s0.3,0.3,0.5,0.3H8c0.6,0,0.9-0.4,1.1-0.8c0,0,4-7.2,4.2-7.4l-2.7-4.7c-0.2-0.3-0.5-0.7-1.1-0.7L5.6,6.8L5.6,6.8z"/>
	<path class="st0" d="M22,1.5c-0.6,0-0.8,0.4-1,0.7c0,0-8.4,14.9-8.7,15.4l5.5,10.2c0.2,0.3,0.5,0.7,1.1,0.7h3.9
		c0.2,0,0.4-0.1,0.5-0.2c0.1-0.2,0.1-0.4,0-0.6l-5.5-10l0,0l8.6-15.2c0.1-0.2,0.1-0.4,0-0.6s-0.3-0.2-0.5-0.2L22,1.5L22,1.5L22,1.5
		L22,1.5z"/>
</g>
</svg>
